<svg xmlns="http://www.w3.org/2000/svg" viewBox="0 0 741 580" role="img" aria-label="William Montiel">
  <style>
    .ink { fill: #0a0a0a; }
    @media (prefers-color-scheme: dark) { .ink { fill: #ffffff; } }
  </style>
  <!-- WM monogram only (the W+M zigzag, no semicolon) for favicon sizes -->
  <g fill="#FF4A1C">
    <polygon points="305,16 323.5,16 185.5,564 167,564"/>
    <polygon points="305,16 323.5,16 459.5,564 441,564"/>
    <polygon points="577,16 595.5,16 459.5,564 441,564"/>
    <polygon points="558.5,16 595.5,16 725.5,564 688.5,564"/>
  </g>
  <g class="ink">
    <polygon points="15.5,16 52.5,16 185.5,564 148.5,564"/>
    <polygon points="286.5,16 305,16 167,564 148.5,564"/>
    <polygon points="286.5,16 305,16 441,564 422.5,564"/>
    <polygon points="558.5,16 577,16 441,564 422.5,564"/>
  </g>
</svg>
