<svg xmlns="http://www.w3.org/2000/svg" viewBox="0 0 1376 768" preserveAspectRatio="xMidYMid meet">
<g transform="translate(0.000000,768.000000) scale(0.100000,-0.100000)" style="fill:var(--accent,#FF4A1C)" stroke="none">
<path d="M7980 5643 c-35 -12 -40 -35 -40 -170 0 -142 -2 -134 55 -181 13 -11 15 -32 13 -125 l-3 -111 -32 -8 -33 -9 0 -887 c0 -488 4 -892 8 -898 4 -6 17 -16 30 -23 19 -10 22 -20 22 -65 0 -69 22 -89 113 -106 59 -11 70 -10 92 4 l25 16 0 416 c0 386 -1 415 -17 421 -46 16 -73 76 -40 88 7 3 77 -8 155 -24 144 -29 180 -29 230 -2 32 17 61 80 67 148 9 89 13 102 38 118 21 14 43 11 258 -30 129 -25 248 -50 265 -56 63 -20 104 -90 104 -178 0 -66 17 -117 52 -157 40 -45 67 -59 153 -74 94 -17 130 -35 157 -79 23 -35 23 -42 28 -430 l5 -395 33 -8 c29 -8 32 -12 32 -47 0 -54 23 -71 106 -78 121 -10 109 -117 112 998 l2 958 -30 16 -30 16 0 113 0 114 30 11 30 10 0 145 c0 135 -1 147 -21 165 -39 36 -139 36 -151 0 -3 -9 -18 -9 -63 0 -112 22 -105 18 -105 56 0 27 -5 38 -22 45 -13 5 -277 59 -588 120 -311 61 -592 117 -625 124 -79 17 -125 6 -125 -29 0 -30 2 -29 -89 -9 -58 13 -71 20 -71 35 0 27 -91 56 -130 42z m82 -47 c4 -6 8 -18 8 -27 0 -12 17 -20 63 -28 106 -21 137 -31 137 -46 0 -18 7 -19 -95 5 -107 25 -107 25 -103 -2 3 -20 14 -25 101 -43 l97 -19 0 -441 c0 -262 4 -455 10 -476 6 -20 19 -44 30 -54 14 -13 179 -50 612 -136 326 -66 598 -119 605 -119 7 0 22 9 33 20 19 19 20 33 20 485 0 256 3 465 8 465 4 0 55 -11 115 -24 59 -12 109 -20 112 -18 3 3 5 13 5 23 0 19 -2 19 -142 45 -65 12 -98 22 -98 31 0 17 17 16 113 -2 107 -20 127 -20 127 5 0 23 21 26 69 9 40 -14 42 -27 39 -174 -3 -116 -4 -120 -26 -123 -41 -6 -44 -25 -33 -249 1 -14 12 -28 31 -38 l30 -16 0 -944 c0 -912 -1 -946 -19 -964 -16 -16 -25 -18 -72 -9 -30 5 -56 12 -59 14 -2 3 -7 26 -10 52 -4 42 -8 47 -37 56 l-33 9 0 367 c0 409 -3 435 -64 488 -25 22 -54 33 -122 47 -155 31 -192 70 -205 216 -9 95 -22 130 -63 168 -21 20 -68 32 -298 78 -262 53 -273 54 -305 39 -41 -19 -63 -66 -63 -133 -1 -64 -30 -127 -70 -148 -29 -15 -39 -14 -182 14 l-151 31 -45 -25 c-24 -14 -46 -25 -48 -25 -2 0 -4 164 -4 364 0 386 -1 393 -47 384 -17 -3 -18 -25 -18 -378 l0 -374 27 -15 c25 -14 29 -14 57 7 39 28 41 28 41 -7 0 -20 8 -34 25 -45 l25 -17 -2 -412 -3 -412 -35 1 c-100 4 -140 35 -140 109 l0 34 25 -24 c73 -74 145 46 73 122 -40 43 -96 19 -101 -44 -2 -26 -5 -29 -22 -23 -20 7 -20 18 -23 894 l-2 886 25 0 c37 0 47 37 43 158 -3 103 -3 104 -36 130 l-32 27 0 131 c0 72 3 134 7 138 10 10 86 -4 95 -18z m33 4 c3 -5 1 -10 -4 -10 -6 0 -11 5 -11 10 0 6 2 10 4 10 3 0 8 -4 11 -10z m300 -35 c39 -9 300 -61 580 -116 281 -55 527 -105 548 -110 l37 -10 0 -538 c0 -484 -2 -540 -16 -552 -14 -11 -104 4 -610 105 -534 107 -596 121 -616 143 l-23 25 -3 534 c-2 506 -2 534 15 534 10 0 50 -7 88 -15z m85 5 c20 -6 21 -8 5 -8 -11 0 -33 4 -50 8 -27 7 -27 8 -5 8 14 0 36 -4 50 -8z m-323 -86 c-3 -3 -12 -4 -19 -1 -8 3 -5 6 6 6 11 1 17 -2 13 -5z m96 -21 c-7 -2 -19 -2 -25 0 -7 3 -2 5 12 5 14 0 19 -2 13 -5z m1334 -165 c-3 -7 -5 -2 -5 12 0 14 2 19 5 13 2 -7 2 -19 0 -25z m370 -265 c-2 -32 -3 -6 -3 57 0 63 1 89 3 58 2 -32 2 -84 0 -115z m-70 -270 c-2 -32 -3 -8 -3 52 0 61 1 87 3 58 2 -29 2 -78 0 -110z m-1827 -424 c0 -323 -2 -368 -15 -363 -15 6 -19 145 -16 579 0 83 1 153 1 157 0 4 7 5 15 2 13 -5 15 -56 15 -375z m1897 -1081 c-1 -255 -2 -47 -2 462 0 509 1 717 2 463 2 -255 2 -671 0 -925z m-1350 855 c-2 -16 -4 -3 -4 27 0 30 2 43 4 28 2 -16 2 -40 0 -55z m-503 -815 c24 -33 19 -98 -7 -98 -21 0 -47 34 -47 61 0 60 26 78 54 37z m-70 -13 c-3 -8 -1 -29 5 -46 6 -18 9 -34 7 -36 -8 -8 -28 68 -22 82 3 8 8 15 10 15 3 0 3 -7 0 -15z m183 -127 c-2 -13 -4 -5 -4 17 -1 22 1 32 4 23 2 -10 2 -28 0 -40z"/>
<path d="M8034 4885 c-17 -26 -12 -58 14 -87 31 -36 82 -11 82 40 0 65 -64 96 -96 47z m70 -11 c11 -28 6 -64 -8 -64 -16 0 -26 21 -26 56 0 27 24 33 34 8z m-40 -65 c4 -8 0 -5 -8 5 -9 11 -16 31 -15 45 1 24 2 24 8 -5 4 -17 11 -37 15 -45z"/>
<path d="M9777 4562 c-23 -26 -21 -78 4 -103 43 -43 96 1 78 65 -15 53 -53 70 -82 38z m71 -66 c-2 -12 -10 -21 -18 -21 -18 0 -35 47 -26 71 7 18 9 17 27 -5 11 -13 19 -34 17 -45z m-64 39 c-3 -8 1 -28 10 -46 12 -23 12 -28 2 -20 -17 14 -29 58 -21 71 9 15 15 12 9 -5z"/>
<path d="M9774 2975 c-29 -29 -31 -68 -4 -112 18 -31 34 -38 70 -33 44 5 56 102 18 137 -38 33 -57 35 -84 8z m75 -18 c19 -24 23 -71 8 -92 -15 -19 -16 -19 -35 -2 -38 35 -40 107 -3 107 10 0 24 -6 30 -13z m-56 -87 c11 -13 10 -13 -5 -1 -13 9 -17 26 -16 55 l1 41 4 -40 c3 -22 10 -47 16 -55z"/>
<path d="M8340 5460 c0 -36 2 -38 38 -45 20 -3 47 -9 60 -12 20 -5 22 -1 22 31 0 40 -11 48 -82 59 l-38 6 0 -39z m101 -12 c12 -18 5 -21 -40 -13 -27 4 -41 12 -41 22 0 12 8 14 37 10 20 -4 40 -12 44 -19z"/>
<path d="M9040 4840 l0 -450 23 -5 c12 -3 76 -16 143 -29 66 -14 132 -28 147 -31 l27 -7 0 455 0 455 -160 31 c-88 17 -165 31 -170 31 -6 0 -10 -159 -10 -450z m27 47 c-1 -67 -3 -9 -3 128 0 138 2 192 3 122 2 -71 2 -183 0 -250z m173 349 l115 -23 3 -427 2 -427 -34 6 c-18 4 -80 17 -137 29 l-104 22 -1 422 -1 422 21 -1 c11 0 73 -10 136 -23z m-173 -688 c-2 -13 -4 -5 -4 17 -1 22 1 32 4 23 2 -10 2 -28 0 -40z m0 -125 c-3 -10 -5 -2 -5 17 0 19 2 27 5 18 2 -10 2 -26 0 -35z"/>
</g>
</svg>
